# xmcd
#
# Track frame offsets: 
#        150
#        14685
#        33399
#        47806
#        63899
#        80866
#        95813
#        110263
#        126003
#        140300
#        158333
#
# Disc length: 2272 seconds
#
# Revision: 3
# Processed by: cddbd v1.5.2PL0 Copyright (c) Steve Scherf et al.
# Submitted via: ExactAudioCopy v1.0b3
#
DISCID=8d08de0b
DTITLE=The Bears - Eureka!
DYEAR=2007
DGENRE=Rock
TTITLE0=Zelda Fitzgerald
TTITLE1=Veneer
TTITLE2=On
TTITLE3=Troubled Beauty
TTITLE4=Normal
TTITLE5=We Never Close
TTITLE6=Think
TTITLE7=Keep Your Own Counsel
TTITLE8=Idiot in the Sky
TTITLE9=Doodle
TTITLE10=Comin' Round the Mountain
EXTD=ID3G:  17 YEAR: 2007
EXTT0=
EXTT1=
EXTT2=
EXTT3=
EXTT4=
EXTT5=
EXTT6=
EXTT7=
EXTT8=
EXTT9=
EXTT10=
PLAYORDER=
